<?xml version="1.0" encoding="UTF-8" standalone="no"?>
<!-- Created with Inkscape (http://www.inkscape.org/) -->

<svg
   xmlns:dc="http://purl.org/dc/elements/1.1/"
   xmlns:cc="http://creativecommons.org/ns#"
   xmlns:rdf="http://www.w3.org/1999/02/22-rdf-syntax-ns#"
   xmlns:svg="http://www.w3.org/2000/svg"
   xmlns="http://www.w3.org/2000/svg"
   xmlns:sodipodi="http://sodipodi.sourceforge.net/DTD/sodipodi-0.dtd"
   xmlns:inkscape="http://www.inkscape.org/namespaces/inkscape"
   width="64"
   height="64"
   id="svg4136"
   version="1.1"
   inkscape:version="0.91 r13725"
   viewBox="0 0 64 64"
   sodipodi:docname="logo_sub.svg">
  <defs
     id="defs4138" />
  <sodipodi:namedview
     id="base"
     pagecolor="#ffffff"
     bordercolor="#666666"
     borderopacity="1.0"
     inkscape:pageopacity="0.0"
     inkscape:pageshadow="2"
     inkscape:zoom="11"
     inkscape:cx="40.606802"
     inkscape:cy="27.622236"
     inkscape:current-layer="layer1"
     showgrid="true"
     inkscape:document-units="px"
     inkscape:grid-bbox="true"
     inkscape:window-width="1920"
     inkscape:window-height="1017"
     inkscape:window-x="-8"
     inkscape:window-y="-8"
     inkscape:window-maximized="1" />
  <metadata
     id="metadata4141">
    <rdf:RDF>
      <cc:Work
         rdf:about="">
        <dc:format>image/svg+xml</dc:format>
        <dc:type
           rdf:resource="http://purl.org/dc/dcmitype/StillImage" />
        <dc:title></dc:title>
      </cc:Work>
    </rdf:RDF>
  </metadata>
  <g
     id="layer1"
     inkscape:label="Layer 1"
     inkscape:groupmode="layer">
    <path
       inkscape:connector-curvature="0"
       id="path4729"
       style="font-style:normal;font-weight:normal;font-size:medium;line-height:125%;font-family:sans-serif;text-align:center;letter-spacing:0px;word-spacing:0px;text-anchor:middle;fill:#000000;fill-opacity:1;stroke:none;stroke-width:1px;stroke-linecap:butt;stroke-linejoin:miter;stroke-opacity:1"
       d="m 1.1337094,30.407625 c 0.3260979,-0.180159 0.647057,-0.363288 0.9628775,-0.549383 6.3349933,1.481125 13.2624601,4.849432 19.6141851,7.366185 L 20.697056,41.707961 2.289924,31.075494 1.1336973,30.407625 Z"
       sodipodi:nodetypes="ccccccc" />
    <path
       inkscape:connector-curvature="0"
       id="path4731"
       style="font-style:normal;font-weight:normal;font-size:medium;line-height:125%;font-family:sans-serif;text-align:center;letter-spacing:0px;word-spacing:0px;text-anchor:middle;fill:#000000;fill-opacity:1;stroke:none;stroke-width:1px;stroke-linecap:butt;stroke-linejoin:miter;stroke-opacity:1"
       d="m 32.210727,13.966453 c 2.577249,1.410703 5.086672,2.848536 7.528275,4.313496 2.46873,1.437833 4.964589,2.88923 7.487578,4.354191 -0.05427,2.767149 -0.06781,5.520733 -0.0407,8.260753 0.02713,2.74002 0.0407,5.520733 0.0407,8.342141 l 0,0.48832 c -0.05427,0.135644 -0.189903,0.257725 -0.406933,0.36624 -0.189903,0.108517 -0.379805,0.189902 -0.569708,0.244161 -2.278827,1.356445 -4.584786,2.699326 -6.917872,4.028643 -2.333086,1.329317 -4.666173,2.672197 -6.999259,4.028643 -2.522988,-1.410703 -5.032414,-2.848535 -7.528274,-4.313496 -2.468731,-1.437833 -4.964591,-2.889231 -7.487579,-4.354191 0.05424,-2.957051 0.06781,-5.737765 0.04071,-8.34214 -0.02714,-2.604375 -0.04071,-5.195186 -0.04071,-7.772434 l 0,-0.97664 c 0.05424,-0.05425 0.189894,-0.149202 0.406933,-0.284853 0.24416,-0.162773 0.434063,-0.271289 0.569708,-0.325547 1.112286,-0.623965 2.183878,-1.234367 3.214777,-1.831202 1.058028,-0.596835 2.143184,-1.207237 3.255469,-1.831201 1.302187,-0.786739 2.563681,-1.532784 3.784482,-2.238136 1.220802,-0.705353 2.441602,-1.424269 3.662403,-2.156748 z m -10.498887,11.23137 0,12.08593 c 1.790508,1.030898 3.553886,2.048232 5.290137,3.052002 1.763378,1.003769 3.499629,2.021104 5.20875,3.052002 1.600607,-0.922383 3.160518,-1.817637 4.679738,-2.685762 1.519219,-0.868126 3.052002,-1.76338 4.598351,-2.685763 0.05427,-0.02713 0.149209,-0.06781 0.284854,-0.122081 l 0.406933,-0.244161 c 0.162773,-0.08138 0.298418,-0.162774 0.406933,-0.24416 0.135645,-0.108515 0.217032,-0.189901 0.244161,-0.244159 0.05425,-0.135645 0.06781,-0.352677 0.04071,-0.651094 -0.02714,-0.298418 -0.04071,-0.569707 -0.04071,-0.813868 l 0,-10.498888 c -1.709122,-1.030899 -3.458936,-2.061798 -5.249445,-3.092697 -1.790508,-1.030898 -3.540322,-2.034668 -5.249444,-3.011309 -1.790508,0.976641 -3.567453,1.980411 -5.330831,3.011309 -1.736251,1.030899 -3.499629,2.061798 -5.290137,3.092699 z"
       sodipodi:nodetypes="cccsscccscccsscccccscccccsccccccscsccc" />
    <path
       inkscape:connector-curvature="0"
       id="path4729-2"
       style="font-style:normal;font-weight:normal;font-size:medium;line-height:125%;font-family:sans-serif;text-align:center;letter-spacing:0px;word-spacing:0px;text-anchor:middle;fill:#000000;fill-opacity:1;stroke:none;stroke-width:1px;stroke-linecap:butt;stroke-linejoin:miter;stroke-opacity:1"
       d="M 63.13091,30.684064 C 62.804812,30.503903 62.483854,30.320775 62.168033,30.134679 56.508806,29.677321 48.486726,35.016263 42.892178,37.4042 l 0.675386,4.580199 18.407132,-10.632468 1.156227,-0.667867 z"
       sodipodi:nodetypes="ccccccc" />
    <path
       id="path6092"
       style="fill:#000000;fill-opacity:1;stroke:#000000;stroke-width:0.22599421;stroke-miterlimit:4;stroke-opacity:1"
       d="m 33.280328,24.89665 -0.961554,-0.504158 -0.960435,0.506292 0.182345,-1.070288 -0.778303,-0.756973 1.074253,-0.157316 0.479416,-0.974128 0.481577,0.973061 1.074599,0.154929 -0.776619,0.758701 0.184721,1.06988 z"
       inkscape:connector-curvature="0" />
    <path
       id="path6092-1"
       style="fill:#000000;fill-opacity:1;stroke:#000000;stroke-width:0.22599421;stroke-miterlimit:4;stroke-opacity:1"
       d="m 25.839314,30.308989 -0.961555,-0.504158 -0.960434,0.506292 0.182346,-1.070288 -0.778304,-0.756973 1.074252,-0.157315 0.479416,-0.974128 0.481578,0.97306 1.074599,0.15493 -0.77662,0.7587 0.184722,1.06988 z"
       inkscape:connector-curvature="0" />
    <path
       id="path6092-9"
       style="fill:#000000;fill-opacity:1;stroke:#000000;stroke-width:0.22599421;stroke-miterlimit:4;stroke-opacity:1"
       d="m 40.730092,30.295335 -0.961555,-0.504158 -0.960436,0.506292 0.182346,-1.070287 -0.778303,-0.756974 1.074254,-0.157316 0.479415,-0.974128 0.481578,0.973061 1.074599,0.15493 -0.776619,0.7587 0.184721,1.06988 z"
       inkscape:connector-curvature="0" />
    <path
       id="path6092-3"
       style="fill:#000000;fill-opacity:1;stroke:#000000;stroke-width:0.22599421;stroke-miterlimit:4;stroke-opacity:1"
       d="m 28.714088,39.033821 -0.961556,-0.504158 -0.960434,0.506292 0.182346,-1.070287 -0.778304,-0.756974 1.074252,-0.157315 0.479416,-0.974129 0.481579,0.973061 1.074598,0.15493 -0.77662,0.7587 0.184723,1.06988 z"
       inkscape:connector-curvature="0" />
    <path
       id="path6092-94"
       style="fill:#000000;fill-opacity:1;stroke:#000000;stroke-width:0.22599421;stroke-miterlimit:4;stroke-opacity:1"
       d="m 37.890502,39.033822 -0.961554,-0.504158 -0.960436,0.506292 0.182346,-1.070287 -0.778304,-0.756974 1.074254,-0.157315 0.479415,-0.974129 0.481578,0.973061 1.074598,0.15493 -0.776618,0.7587 0.184721,1.06988 z"
       inkscape:connector-curvature="0" />
    <g
       id="g4839"
       transform="matrix(1.0633261,0,0,1.0633261,-0.62494125,-65.925224)">
      <path
         id="path4827"
         d="M 32.722115,88.475 31.095192,87.280769 31,87.211538 30.904808,87.280769 29.277885,88.475 29.2,88.535577 l 0.01731,0.09519 0.813461,5.650962 0.0087,0.06923 0.06058,0.04327 0.804808,0.545192 L 31,95 31.095192,94.939423 31.9,94.394231 l 0.06058,-0.04327 0.0087,-0.06923 0.813461,-5.650962 L 32.8,88.535577 32.722115,88.475 Z m -1.393269,5.451923 -0.657692,0 -0.389423,-4.828846 1.445192,0 -0.398077,4.828846 z M 31.268269,94.091346 31,94.619231 l -0.268269,-0.527885 0.536538,0 z M 30.325,88.942308 31,87.600962 l 0.675,1.341346 -1.35,0 z M 30.775,87.6875 30.160577,88.907692 29.5375,88.596154 30.775,87.6875 Z m -0.666346,1.384615 0.398077,4.889423 -0.250962,0.15577 -0.770192,-5.365385 0.623077,0.320192 z m 0.45,5.053847 0.216346,0.432692 -0.441346,-0.294231 0.225,-0.138461 z m 0.657692,0.432692 0.216346,-0.432692 0.216346,0.138461 -0.432692,0.294231 z m 0.276923,-0.588462 0.398077,-4.889423 0.631731,-0.320192 -0.770192,5.365385 -0.259616,-0.15577 z m 0.354808,-5.0625 L 31.225,87.6875 l 1.2375,0.908654 -0.614423,0.311538 z"
         inkscape:connector-curvature="0" />
    </g>
  </g>
</svg>
