<?xml version="1.0" encoding="UTF-8" standalone="no"?>
<!-- Created with Inkscape (http://www.inkscape.org/) -->

<svg
   xmlns:osb="http://www.openswatchbook.org/uri/2009/osb"
   xmlns:dc="http://purl.org/dc/elements/1.1/"
   xmlns:cc="http://creativecommons.org/ns#"
   xmlns:rdf="http://www.w3.org/1999/02/22-rdf-syntax-ns#"
   xmlns:svg="http://www.w3.org/2000/svg"
   xmlns="http://www.w3.org/2000/svg"
   xmlns:xlink="http://www.w3.org/1999/xlink"
   xmlns:sodipodi="http://sodipodi.sourceforge.net/DTD/sodipodi-0.dtd"
   xmlns:inkscape="http://www.inkscape.org/namespaces/inkscape"
   width="64"
   height="64"
   id="svg4136"
   version="1.1"
   inkscape:version="0.91 r13725"
   viewBox="0 0 64 64"
   sodipodi:docname="logo_sub.svg">
  <defs
     id="defs4138">
    <linearGradient
       id="linearGradient6330"
       osb:paint="solid">
      <stop
         style="stop-color:#ffffff;stop-opacity:1;"
         offset="0"
         id="stop6332" />
    </linearGradient>
    <linearGradient
       id="linearGradient6324"
       osb:paint="solid">
      <stop
         style="stop-color:#ffffff;stop-opacity:1;"
         offset="0"
         id="stop6326" />
    </linearGradient>
    <linearGradient
       id="linearGradient6318"
       osb:paint="solid">
      <stop
         style="stop-color:#4fc3f7;stop-opacity:1;"
         offset="0"
         id="stop6320" />
    </linearGradient>
    <linearGradient
       inkscape:collect="always"
       xlink:href="#linearGradient6318"
       id="linearGradient6322"
       x1="0.09391051"
       y1="31.863702"
       x2="63.996998"
       y2="31.863702"
       gradientUnits="userSpaceOnUse" />
    <linearGradient
       inkscape:collect="always"
       xlink:href="#linearGradient6330"
       id="linearGradient6334"
       x1="1.6539033"
       y1="91.321911"
       x2="56.905968"
       y2="91.321911"
       gradientUnits="userSpaceOnUse" />
    <linearGradient
       inkscape:collect="always"
       xlink:href="#linearGradient6330"
       id="linearGradient6338"
       gradientUnits="userSpaceOnUse"
       x1="1.6539033"
       y1="91.321911"
       x2="56.905968"
       y2="91.321911"
       gradientTransform="translate(-0.18181818,3.5454554)" />
  </defs>
  <sodipodi:namedview
     id="base"
     pagecolor="#ffffff"
     bordercolor="#666666"
     borderopacity="1.0"
     inkscape:pageopacity="0.0"
     inkscape:pageshadow="2"
     inkscape:zoom="3.8890873"
     inkscape:cx="54.854999"
     inkscape:cy="34.541715"
     inkscape:current-layer="layer1"
     showgrid="true"
     inkscape:document-units="px"
     inkscape:grid-bbox="true"
     inkscape:window-width="1920"
     inkscape:window-height="1017"
     inkscape:window-x="-8"
     inkscape:window-y="-8"
     inkscape:window-maximized="1"
     showguides="true" />
  <metadata
     id="metadata4141">
    <rdf:RDF>
      <cc:Work
         rdf:about="">
        <dc:format>image/svg+xml</dc:format>
        <dc:type
           rdf:resource="http://purl.org/dc/dcmitype/StillImage" />
        <dc:title></dc:title>
      </cc:Work>
    </rdf:RDF>
  </metadata>
  <g
     inkscape:groupmode="layer"
     id="layer2"
     inkscape:label="Layer 2"
     style="display:inline">
    <path
       style="fill:url(#linearGradient6322);fill-opacity:1;stroke:none;stroke-width:1.00612009;stroke-opacity:1"
       d="M 32.275729,-0.08779115 47.375122,19.659429 49.225213,34.408378 50.377401,23.840264 50.743815,27.496957 51.292494,24.999823 63.996998,41.760072 31.675002,63.815196 0.09391051,40.578254 Z"
       id="rect4844"
       inkscape:connector-curvature="0"
       sodipodi:nodetypes="cccccccccc" />
  </g>
  <g
     id="layer1"
     inkscape:label="Layer 1"
     inkscape:groupmode="layer"
     style="display:inline">
    <g
       id="g4839"
       transform="matrix(1.0633261,0,0,1.0633261,-0.80675943,-62.379769)"
       style="fill-opacity:1;fill:url(#linearGradient6334)">
      <g
         id="g4857"
         style="fill-opacity:1;fill:url(#linearGradient6334)">
        <path
           style="font-style:normal;font-weight:normal;font-size:medium;line-height:125%;font-family:sans-serif;text-align:center;letter-spacing:0px;word-spacing:0px;text-anchor:middle;fill:url(#linearGradient6338);fill-opacity:1;stroke:none;stroke-width:1px;stroke-linecap:butt;stroke-linejoin:miter;stroke-opacity:1"
           d="M 32.029297 17.511719 C 30.808496 18.244198 29.58799 18.962616 28.367188 19.667969 C 27.146385 20.373321 25.884218 21.119511 24.582031 21.90625 C 23.469746 22.530214 22.3842 23.141446 21.326172 23.738281 C 20.295273 24.335116 19.223614 24.944394 18.111328 25.568359 C 17.975683 25.622617 17.787129 25.731758 17.542969 25.894531 C 17.32593 26.030182 17.189006 26.125436 17.134766 26.179688 L 17.134766 27.15625 C 17.134766 29.733498 17.148641 32.323359 17.175781 34.927734 C 17.189559 36.25178 17.192793 37.623863 17.185547 39.039062 C 13.109052 37.424683 9.7390293 36.187686 4.9765625 35.074219 C 4.660742 35.260314 4.3397698 35.442888 4.0136719 35.623047 L 5.1699219 36.291016 L 20.515625 45.253906 L 20.519531 45.238281 C 21.888819 46.034436 23.270056 46.836994 24.623047 47.625 C 27.118907 49.089961 29.627403 50.52875 32.150391 51.939453 C 34.483477 50.583007 36.817305 49.239473 39.150391 47.910156 C 40.575193 47.09835 41.970432 46.271143 43.375 45.449219 L 43.386719 45.529297 L 58.546875 36.728516 L 59.703125 36.0625 C 59.377027 35.882339 59.056055 35.697815 58.740234 35.511719 C 54.584205 35.175844 50.902702 36.981384 47.025391 38.908203 C 47.018641 37.417357 47.018437 35.906954 47.003906 34.439453 C 46.976796 31.699433 46.990652 28.946837 47.044922 26.179688 C 44.521933 24.714725 42.025371 23.264005 39.556641 21.826172 C 37.115038 20.361212 34.606546 18.922422 32.029297 17.511719 z M 32.150391 22.638672 C 33.859513 23.615313 35.609883 24.619493 37.400391 25.650391 C 39.1909 26.68129 40.941269 27.713242 42.650391 28.744141 L 42.650391 39.242188 C 42.650391 39.486349 42.664266 39.758223 42.691406 40.056641 C 42.718506 40.355058 42.704641 40.571386 42.650391 40.707031 C 42.623262 40.761289 42.541895 40.842657 42.40625 40.951172 C 42.297735 41.032558 42.16082 41.113932 41.998047 41.195312 L 41.591797 41.439453 C 41.456152 41.493724 41.360911 41.53537 41.306641 41.5625 C 39.760292 42.484883 38.228203 43.379921 36.708984 44.248047 C 35.189764 45.116172 33.629904 46.011211 32.029297 46.933594 C 30.320176 45.902696 28.583692 44.884628 26.820312 43.880859 C 25.084061 42.877089 23.319805 41.860976 21.529297 40.830078 L 21.529297 28.744141 C 23.319805 27.71324 25.084061 26.68129 26.820312 25.650391 C 28.583692 24.619493 30.359883 23.615313 32.150391 22.638672 z M 32.134766 25.486328 L 31.654297 26.458984 L 30.580078 26.617188 L 31.359375 27.373047 L 31.175781 28.443359 L 32.136719 27.9375 L 33.097656 28.441406 L 32.914062 27.373047 L 33.689453 26.613281 L 32.615234 26.458984 L 32.134766 25.486328 z M 32.15625 30.355469 L 32.054688 30.427734 L 30.324219 31.697266 L 30.242188 31.761719 L 30.261719 31.863281 L 31.125 37.873047 L 31.134766 37.945312 L 31.199219 37.992188 L 32.054688 38.572266 L 32.15625 38.636719 L 32.257812 38.572266 L 33.113281 37.992188 L 33.177734 37.945312 L 33.1875 37.873047 L 34.052734 31.863281 L 34.070312 31.761719 L 33.988281 31.697266 L 32.257812 30.427734 L 32.15625 30.355469 z M 32.15625 30.769531 L 32.875 32.195312 L 31.439453 32.195312 L 32.15625 30.769531 z M 31.917969 30.861328 L 31.263672 32.158203 L 30.601562 31.826172 L 31.917969 30.861328 z M 32.396484 30.861328 L 33.710938 31.826172 L 33.058594 32.158203 L 32.396484 30.861328 z M 39.583984 30.884766 L 39.105469 31.857422 L 38.03125 32.015625 L 38.808594 32.773438 L 38.626953 33.84375 L 39.585938 33.335938 L 40.548828 33.839844 L 40.363281 32.771484 L 41.140625 32.011719 L 40.066406 31.857422 L 39.583984 30.884766 z M 24.693359 30.898438 L 24.212891 31.871094 L 23.138672 32.029297 L 23.917969 32.787109 L 23.736328 33.857422 L 24.695312 33.349609 L 25.658203 33.853516 L 25.472656 32.785156 L 26.25 32.025391 L 25.173828 31.871094 L 24.693359 30.898438 z M 30.546875 31.992188 L 31.208984 32.332031 L 31.632812 37.53125 L 31.365234 37.697266 L 30.546875 31.992188 z M 33.775391 32.001953 L 32.957031 37.707031 L 32.681641 37.541016 L 33.103516 32.341797 L 33.775391 32.001953 z M 31.392578 32.361328 L 32.929688 32.361328 L 32.505859 37.496094 L 31.806641 37.496094 L 31.392578 32.361328 z M 31.871094 37.669922 L 32.441406 37.669922 L 32.15625 38.230469 L 31.871094 37.669922 z M 31.6875 37.707031 L 31.917969 38.166016 L 31.447266 37.853516 L 31.6875 37.707031 z M 32.617188 37.707031 L 32.845703 37.853516 L 32.386719 38.166016 L 32.617188 37.707031 z M 27.568359 39.623047 L 27.087891 40.597656 L 26.013672 40.753906 L 26.792969 41.511719 L 26.609375 42.582031 L 27.570312 42.074219 L 28.533203 42.580078 L 28.347656 41.509766 L 29.125 40.75 L 28.048828 40.595703 L 27.568359 39.623047 z M 36.744141 39.623047 L 36.265625 40.597656 L 35.191406 40.753906 L 35.96875 41.511719 L 35.787109 42.582031 L 36.748047 42.074219 L 37.708984 42.580078 L 37.523438 41.509766 L 38.300781 40.75 L 37.226562 40.595703 L 36.744141 39.623047 z "
           transform="matrix(0.94044527,0,0,0.94044527,0.75871309,58.664759)"
           id="path4729" />
      </g>
    </g>
  </g>
</svg>
