<?xml version="1.0" encoding="UTF-8" standalone="no"?>
<!-- Created with Inkscape (http://www.inkscape.org/) -->

<svg
   xmlns:dc="http://purl.org/dc/elements/1.1/"
   xmlns:cc="http://creativecommons.org/ns#"
   xmlns:rdf="http://www.w3.org/1999/02/22-rdf-syntax-ns#"
   xmlns:svg="http://www.w3.org/2000/svg"
   xmlns="http://www.w3.org/2000/svg"
   xmlns:sodipodi="http://sodipodi.sourceforge.net/DTD/sodipodi-0.dtd"
   xmlns:inkscape="http://www.inkscape.org/namespaces/inkscape"
   width="64"
   height="64"
   id="svg4136"
   version="1.1"
   inkscape:version="0.91 r13725"
   viewBox="0 0 64 64"
   sodipodi:docname="描画.svg">
  <defs
     id="defs4138" />
  <sodipodi:namedview
     id="base"
     pagecolor="#ffffff"
     bordercolor="#666666"
     borderopacity="1.0"
     inkscape:pageopacity="0.0"
     inkscape:pageshadow="2"
     inkscape:zoom="11"
     inkscape:cx="40.481061"
     inkscape:cy="27.677238"
     inkscape:current-layer="layer1"
     showgrid="true"
     inkscape:document-units="px"
     inkscape:grid-bbox="true"
     inkscape:window-width="1920"
     inkscape:window-height="1017"
     inkscape:window-x="-8"
     inkscape:window-y="-8"
     inkscape:window-maximized="1" />
  <metadata
     id="metadata4141">
    <rdf:RDF>
      <cc:Work
         rdf:about="">
        <dc:format>image/svg+xml</dc:format>
        <dc:type
           rdf:resource="http://purl.org/dc/dcmitype/StillImage" />
        <dc:title></dc:title>
      </cc:Work>
    </rdf:RDF>
  </metadata>
  <g
     id="layer1"
     inkscape:label="Layer 1"
     inkscape:groupmode="layer">
    <path
       inkscape:connector-curvature="0"
       id="path4723"
       style="font-style:normal;font-variant:normal;font-weight:normal;font-stretch:normal;font-size:medium;line-height:125%;font-family:Cubic;-inkscape-font-specification:Cubic;text-align:center;letter-spacing:0px;word-spacing:0px;text-anchor:middle;fill:#000000;fill-opacity:1;stroke:none;stroke-width:1px;stroke-linecap:butt;stroke-linejoin:miter;stroke-opacity:1"
       d="m 3.9973846,10.114715 0,6.717409 q 0,0.234328 -0.026036,0.494692 -0.026037,0.260365 0.026036,0.44262 0.026037,0.05207 0.1301824,0.156219 0.1301823,0.07811 0.2603646,0.156219 0.1562188,0.07811 0.2864012,0.156219 0.1301823,0.05207 0.1822552,0.07811 1.4840786,0.833167 2.9681572,1.666334 1.4840786,0.859203 2.9681578,1.69237 1.718406,-0.989385 3.358704,-1.952735 1.640297,-0.963349 3.358704,-1.952735 l 0,-6.717408 q 0,-0.234328 -0.02604,-0.520729 -0.02604,-0.286401 0.02604,-0.416584 0.05207,-0.1301819 0.286401,-0.2343279 0.234328,-0.104146 0.416584,-0.2343282 l 2.108953,-1.171641 0,10.2323311 0,0.702985 q -0.05207,0.05207 -0.234328,0.156219 -0.182255,0.104145 -0.312437,0.234328 -2.187064,1.24975 -4.217908,2.395355 -2.030844,1.145604 -4.217908,2.447428 -0.130182,0.05207 -0.312437,0.182255 -0.182255,0.130182 -0.234328,0.130182 -0.130183,0 -0.312438,-0.130182 Q 10.29821,24.695136 10.168027,24.643064 7.9288911,23.289167 5.6637185,21.987344 3.4245824,20.711557 1.1854463,19.409734 l 0,-10.9353161 q 0.7029845,0.3645105 1.4320056,0.781094 0.7290211,0.390547 1.3799327,0.8592031 z" />
    <path
       inkscape:connector-curvature="0"
       id="path4725"
       style="font-style:normal;font-variant:normal;font-weight:normal;font-stretch:normal;font-size:medium;line-height:125%;font-family:Cubic;-inkscape-font-specification:Cubic;text-align:center;letter-spacing:0px;word-spacing:0px;text-anchor:middle;fill:#000000;fill-opacity:1;stroke:none;stroke-width:1px;stroke-linecap:butt;stroke-linejoin:miter;stroke-opacity:1"
       d="m 41.60218,8.3181991 q -2.369319,1.405969 -4.738637,2.7859019 -2.369319,1.353896 -4.79071,2.759865 -0.650912,-0.416583 -1.353896,-0.80713 -0.676948,-0.416584 -1.379933,-0.833167 1.640297,-0.989386 3.306631,-1.952735 Q 34.338006,9.3075848 35.978303,8.3181991 35.04099,7.7193604 34.051605,7.198631 33.088255,6.6518652 32.150942,6.1311359 30.432536,7.0684487 28.740165,8.0578344 27.073831,9.0472202 25.355425,10.036606 l 0,7.73283 q 1.718406,0.989386 3.38474,1.952735 1.692371,0.96335 3.332668,1.952735 1.718407,-0.989385 3.358704,-1.952735 1.640298,-0.963349 3.358704,-1.952735 l 2.811939,1.640298 q -2.369319,1.405969 -4.738637,2.759865 -2.369319,1.353896 -4.79071,2.707793 -2.369318,-1.353897 -4.738637,-2.733829 -2.369318,-1.379933 -4.79071,-2.733829 l 0,-11.0134255 q 2.004808,-1.171641 4.113762,-2.3693185 2.108954,-1.2237139 4.165835,-2.3953549 0.286401,-0.1822553 0.572802,-0.3645105 0.312438,-0.2082918 0.598839,-0.3384741 0.182255,-0.052073 0.36451,0.078109 0.208292,0.1041459 0.494693,0.2343282 2.187063,1.3018233 4.400163,2.5776102 2.239136,1.2497504 4.34809,2.4995008 z" />
    <path
       inkscape:connector-curvature="0"
       id="path4727"
       style="font-style:normal;font-variant:normal;font-weight:normal;font-stretch:normal;font-size:medium;line-height:125%;font-family:Cubic;-inkscape-font-specification:Cubic;text-align:center;letter-spacing:0px;word-spacing:0px;text-anchor:middle;fill:#000000;fill-opacity:1;stroke:none;stroke-width:1px;stroke-linecap:butt;stroke-linejoin:miter;stroke-opacity:1"
       d="m 53.430873,2.8505411 q 2.421391,1.3538963 4.79071,2.733829 2.369318,1.3799327 4.738637,2.733829 Q 62.257235,8.7868555 61.580287,9.1774025 60.903339,9.541913 60.148281,9.9584961 58.507984,9.0211837 56.815614,8.0578344 55.14928,7.0684487 53.508982,6.1311359 51.790576,7.0684487 50.098205,8.0578344 48.431871,9.0472202 46.713465,10.036606 l 0,7.73283 q 0.416583,0.234329 0.859203,0.468657 0.44262,0.234328 0.859203,0.468656 1.249751,0.702985 2.499501,1.484079 1.249751,0.781094 2.499501,1.484078 1.718407,-0.989385 3.384741,-1.952735 1.69237,-0.963349 3.332667,-1.952735 l 2.811939,1.640298 q -2.369319,1.405969 -4.738637,2.759865 -2.343282,1.379933 -4.712601,2.785902 -2.473464,-1.405969 -4.842782,-2.785902 -2.343282,-1.353896 -4.764674,-2.759865 l 0,-5.858205 0,-5.1552205 Q 46.270845,6.9903393 48.6662,5.636443 51.061554,4.2565103 53.430873,2.8505411 Z" />
    <path
       inkscape:connector-curvature="0"
       id="path4729"
       style="font-style:normal;font-weight:normal;font-size:medium;line-height:125%;font-family:sans-serif;text-align:center;letter-spacing:0px;word-spacing:0px;text-anchor:middle;fill:#000000;fill-opacity:1;stroke:none;stroke-width:1px;stroke-linecap:butt;stroke-linejoin:miter;stroke-opacity:1"
       d="M 2.7700724,40.296924 C 3.0767495,40.127493 3.378594,39.955271 3.6756059,39.780258 9.6333204,41.173176 16.148224,44.340884 22.121674,46.707753 L 21.168329,50.924271 3.8574289,40.925017 2.7700609,40.296924 Z"
       sodipodi:nodetypes="ccccccc" />
    <path
       inkscape:connector-curvature="0"
       id="path4731"
       style="font-style:normal;font-weight:normal;font-size:medium;line-height:125%;font-family:sans-serif;text-align:center;letter-spacing:0px;word-spacing:0px;text-anchor:middle;fill:#000000;fill-opacity:1;stroke:none;stroke-width:1px;stroke-linecap:butt;stroke-linejoin:miter;stroke-opacity:1"
       d="m 31.996307,24.834901 c 2.423761,1.326689 4.783737,2.678892 7.07993,4.056607 2.321706,1.352203 4.668925,2.717163 7.041658,4.094878 -0.05103,2.602353 -0.06378,5.191948 -0.03827,7.768787 0.02551,2.576839 0.03827,5.191947 0.03827,7.845326 l 0,0.459239 c -0.05103,0.127566 -0.178593,0.242376 -0.382698,0.344429 -0.178593,0.102053 -0.357186,0.178592 -0.535779,0.229619 -2.143113,1.275663 -4.31174,2.538569 -6.50588,3.788719 -2.19414,1.250149 -4.38828,2.513055 -6.58242,3.788718 -2.372733,-1.326689 -4.73271,-2.678892 -7.07993,-4.056607 -2.321706,-1.352203 -4.668926,-2.717163 -7.041659,-4.094878 0.05102,-2.780945 0.06378,-5.396054 0.03828,-7.845327 -0.02552,-2.449272 -0.03828,-4.885788 -0.03828,-7.309548 l 0,-0.918477 c 0.05102,-0.05102 0.178586,-0.140316 0.382699,-0.267889 0.229619,-0.153079 0.408212,-0.255132 0.535779,-0.306159 1.046044,-0.586805 2.053818,-1.160854 3.023322,-1.722145 0.995017,-0.561291 2.015547,-1.13534 3.06159,-1.722145 1.224636,-0.739884 2.411002,-1.441499 3.559099,-2.104844 1.148097,-0.663345 2.296193,-1.339446 3.444289,-2.028303 z m -9.873629,10.562489 0,11.366155 c 1.683875,0.969504 3.342236,1.926251 4.975085,2.870241 1.658361,0.943991 3.291209,1.900738 4.898544,2.870242 1.505283,-0.867451 2.972295,-1.709389 4.401038,-2.525813 1.428742,-0.816425 2.870241,-1.658362 4.324497,-2.525813 0.05103,-0.02551 0.140323,-0.06378 0.267889,-0.11481 l 0.382699,-0.22962 c 0.153079,-0.07654 0.280645,-0.15308 0.382698,-0.22962 0.127567,-0.102052 0.204107,-0.178591 0.22962,-0.229618 0.05102,-0.127567 0.06378,-0.331673 0.03828,-0.612319 -0.02552,-0.280645 -0.03828,-0.535778 -0.03828,-0.765397 l 0,-9.87363 c -1.607335,-0.969504 -3.25294,-1.939008 -4.936815,-2.908512 -1.683875,-0.969504 -3.32948,-1.913494 -4.936815,-2.831971 -1.683875,0.918477 -3.354994,1.862467 -5.013355,2.831971 -1.632849,0.969504 -3.29121,1.939008 -4.975085,2.908514 z"
       sodipodi:nodetypes="cccsscccscccsscccccscccccsccccccscsccc" />
    <path
       inkscape:connector-curvature="0"
       id="path4729-2"
       style="font-style:normal;font-weight:normal;font-size:medium;line-height:125%;font-family:sans-serif;text-align:center;letter-spacing:0px;word-spacing:0px;text-anchor:middle;fill:#000000;fill-opacity:1;stroke:none;stroke-width:1px;stroke-linecap:butt;stroke-linejoin:miter;stroke-opacity:1"
       d="m 61.075047,40.556899 c -0.306677,-0.169431 -0.608521,-0.341653 -0.905533,-0.516666 -5.322193,-0.430121 -12.86652,4.590862 -18.127887,6.836586 l 0.635164,4.307427 17.3109,-9.999254 1.087368,-0.628093 z"
       sodipodi:nodetypes="ccccccc" />
    <path
       id="path6092"
       style="fill:#000000;fill-opacity:1;stroke:#000000;stroke-width:0.2125352;stroke-miterlimit:4;stroke-opacity:1"
       d="m 33.002209,35.114153 -0.90429,-0.474133 -0.903236,0.47614 0.171486,-1.006547 -0.731952,-0.711892 1.010276,-0.147947 0.450864,-0.916114 0.452898,0.91511 1.010601,0.145703 -0.730368,0.713516 0.173721,1.006164 z"
       inkscape:connector-curvature="0" />
    <path
       id="path6092-1"
       style="fill:#000000;fill-opacity:1;stroke:#000000;stroke-width:0.2125352;stroke-miterlimit:4;stroke-opacity:1"
       d="m 26.004342,40.204162 -0.90429,-0.474133 -0.903236,0.47614 0.171486,-1.006547 -0.731952,-0.711892 1.010276,-0.147947 0.450864,-0.916114 0.452898,0.91511 1.010601,0.145703 -0.730368,0.713516 0.173721,1.006164 z"
       inkscape:connector-curvature="0" />
    <path
       id="path6092-9"
       style="fill:#000000;fill-opacity:1;stroke:#000000;stroke-width:0.2125352;stroke-miterlimit:4;stroke-opacity:1"
       d="m 40.008304,40.191321 -0.90429,-0.474133 -0.903237,0.47614 0.171486,-1.006547 -0.731952,-0.711892 1.010277,-0.147947 0.450864,-0.916114 0.452898,0.91511 1.010601,0.145703 -0.730368,0.713516 0.173721,1.006164 z"
       inkscape:connector-curvature="0" />
    <path
       id="path6092-3"
       style="fill:#000000;fill-opacity:1;stroke:#000000;stroke-width:0.2125352;stroke-miterlimit:4;stroke-opacity:1"
       d="m 28.707909,48.409389 -0.90429,-0.474133 -0.903236,0.47614 0.171486,-1.006547 -0.731952,-0.711892 1.010276,-0.147947 0.450864,-0.916114 0.452898,0.91511 1.010601,0.145703 -0.730368,0.713516 0.173721,1.006164 z"
       inkscape:connector-curvature="0" />
    <path
       id="path6092-94"
       style="fill:#000000;fill-opacity:1;stroke:#000000;stroke-width:0.2125352;stroke-miterlimit:4;stroke-opacity:1"
       d="m 37.337825,48.40939 -0.90429,-0.474133 -0.903236,0.47614 0.171486,-1.006547 -0.731952,-0.711892 1.010276,-0.147947 0.450864,-0.916114 0.452898,0.91511 1.010601,0.145703 -0.730368,0.713516 0.173721,1.006164 z"
       inkscape:connector-curvature="0" />
    <g
       id="g4839"
       transform="translate(1.1161576,-50.29885)">
      <path
         id="path4827"
         d="M 32.722115,88.475 31.095192,87.280769 31,87.211538 30.904808,87.280769 29.277885,88.475 29.2,88.535577 l 0.01731,0.09519 0.813461,5.650962 0.0087,0.06923 0.06058,0.04327 0.804808,0.545192 L 31,95 31.095192,94.939423 31.9,94.394231 l 0.06058,-0.04327 0.0087,-0.06923 0.813461,-5.650962 L 32.8,88.535577 32.722115,88.475 Z m -1.393269,5.451923 -0.657692,0 -0.389423,-4.828846 1.445192,0 -0.398077,4.828846 z M 31.268269,94.091346 31,94.619231 l -0.268269,-0.527885 0.536538,0 z M 30.325,88.942308 31,87.600962 l 0.675,1.341346 -1.35,0 z M 30.775,87.6875 30.160577,88.907692 29.5375,88.596154 30.775,87.6875 Z m -0.666346,1.384615 0.398077,4.889423 -0.250962,0.15577 -0.770192,-5.365385 0.623077,0.320192 z m 0.45,5.053847 0.216346,0.432692 -0.441346,-0.294231 0.225,-0.138461 z m 0.657692,0.432692 0.216346,-0.432692 0.216346,0.138461 -0.432692,0.294231 z m 0.276923,-0.588462 0.398077,-4.889423 0.631731,-0.320192 -0.770192,5.365385 -0.259616,-0.15577 z m 0.354808,-5.0625 L 31.225,87.6875 l 1.2375,0.908654 -0.614423,0.311538 z"
         inkscape:connector-curvature="0" />
    </g>
  </g>
</svg>
